<?xml version="1.0" encoding="utf-8"?>
<!-- Generator: Adobe Illustrator 21.0.0, SVG Export Plug-In . SVG Version: 6.00 Build 0)  -->
<svg version="1.1" id="Слой_1" xmlns="http://www.w3.org/2000/svg" xmlns:xlink="http://www.w3.org/1999/xlink" x="0px" y="0px"
	 viewBox="0 0 529.5 77.9" style="enable-background:new 0 0 529.5 77.9;" xml:space="preserve">
<style type="text/css">
	.st0{fill:#FFFFFF;}
	.st1{fill:#FFFFFF;stroke:#FFFFFF;stroke-width:0.2;stroke-miterlimit:10;}
</style>
<title>logo</title>
<g>
	<path d="M0,33l5.7-0.5c0.2,2.1,0.8,4.1,1.9,5.8c1.1,1.6,2.7,2.9,4.6,3.7c2.2,1,4.6,1.4,7.1,1.4c2.1,0,4.2-0.3,6.2-1.1
		c1.6-0.6,2.9-1.6,3.9-3c0.8-1.2,1.3-2.6,1.3-4c0-1.4-0.4-2.8-1.3-3.9c-1.1-1.3-2.5-2.3-4.1-2.8c-2.7-0.9-5.4-1.7-8.2-2.3
		c-3.1-0.7-6-1.7-8.8-3c-2-1-3.7-2.5-4.9-4.4c-1.1-1.8-1.7-3.8-1.6-5.9c0-2.4,0.7-4.7,2-6.7c1.4-2.1,3.4-3.7,5.8-4.7
		C12.2,0.5,15.1,0,17.9,0c3.1-0.1,6.1,0.5,9,1.7c2.5,1,4.6,2.8,6,5c1.4,2.2,2.2,4.8,2.2,7.4l-5.8,0.4c-0.1-2.6-1.3-5-3.2-6.8
		c-1.8-1.5-4.5-2.3-8-2.3c-3.7,0-6.3,0.7-8,2.1c-1.6,1.2-2.5,3-2.5,5c0,1.6,0.6,3.1,1.8,4.2c1.2,1.1,4.2,2.2,9.2,3.4
		c3.5,0.7,6.9,1.7,10.2,3c2.4,1,4.4,2.7,5.8,4.8c1.3,2,2,4.3,1.9,6.7c0,2.5-0.7,5-2.1,7.2c-1.5,2.3-3.5,4.1-6,5.2
		c-2.8,1.3-5.8,1.9-8.9,1.9c-3.6,0.1-7.1-0.6-10.5-1.9c-2.7-1.2-5-3.1-6.6-5.6C0.9,38.9,0.1,36,0,33z"/>
	<path d="M44.5,25.1c0-7.9,2-14,6.2-18.4c4.1-4.4,9.9-6.9,15.9-6.7c4.1-0.1,8,1,11.5,3.1c3.4,2.1,6.1,5.1,7.8,8.7
		c1.8,4,2.8,8.3,2.7,12.7c0.1,4.4-0.9,8.8-2.8,12.8c-1.7,3.6-4.5,6.7-8,8.7c-3.4,2-7.2,3-11.2,3c-4.1,0-8.1-1.1-11.6-3.3
		c-3.4-2.1-6.1-5.2-7.8-8.8C45.4,33.3,44.5,29.2,44.5,25.1z M50.8,25.2c0,5.7,1.5,10.2,4.5,13.5c5.7,6.2,15.4,6.6,21.6,0.9
		c0.3-0.3,0.6-0.6,0.9-0.9c3-3.3,4.4-8,4.4-14.1c0.1-3.5-0.6-6.9-1.9-10.1C78,9,72.6,5.4,66.6,5.4C62.4,5.4,58.4,7,55.4,10
		C52.3,13,50.8,18.1,50.8,25.2L50.8,25.2z"/>
	<path d="M128.6,0.8h6.1v27.3c0.1,3.8-0.4,7.7-1.6,11.3c-1.1,2.8-3.1,5.2-5.7,6.8c-2.7,1.8-6.3,2.7-10.7,2.7
		c-3.7,0.2-7.3-0.6-10.6-2.2c-2.7-1.5-4.8-3.8-5.9-6.6c-1.2-2.9-1.8-6.8-1.8-11.9V0.8h6.1v27.3c0,4.1,0.4,7.1,1.1,9.1
		c0.7,1.9,2.1,3.5,3.8,4.5c2,1.1,4.3,1.7,6.6,1.6c4.5,0,7.7-1,9.6-3.1c1.9-2.1,2.8-6.1,2.9-12L128.6,0.8z"/>
	<path d="M146.9,48.2V0.8h6.1v41.7h22.6v5.6L146.9,48.2z"/>
	<polygon points="207.5,48.2 207.5,0.8 237.9,0.8 237.9,6.7 213.4,6.7 213.4,20.5 234.9,20.5 234.9,26.5 213.4,26.5 213.4,48.2 	"/>
	<path d="M247.6,48.2V0.8H268c3.2-0.1,6.3,0.3,9.4,1.3c2.2,0.9,4,2.5,5.1,4.5c1.3,2.2,1.9,4.6,1.9,7.1c0.1,3.1-1.1,6.2-3.2,8.5
		c-2.1,2.3-5.4,3.8-9.8,4.4c1.3,0.6,2.6,1.4,3.7,2.4c1.9,1.9,3.6,4,5,6.3l8,12.8h-7.6l-6.1-9.9c-1.8-2.8-3.2-5-4.4-6.5
		c-0.9-1.2-1.9-2.3-3.1-3.2c-0.8-0.6-1.8-1-2.8-1.2c-1.1-0.2-2.3-0.3-3.4-0.2h-7.1v21.1H247.6z M253.6,21.7h13.1
		c2.2,0.1,4.4-0.2,6.5-0.9c1.5-0.5,2.7-1.5,3.6-2.8c0.8-1.3,1.2-2.8,1.2-4.3c0.1-2.1-0.8-4.1-2.4-5.5c-1.6-1.4-4.1-2.1-7.5-2.1
		h-14.6L253.6,21.7z"/>
	<path d="M296.1,48.2V0.8h33.3v5.6h-27.2v14.5h25.4v5.6h-25.4v16.1h28.2v5.6L296.1,48.2z"/>
	<path d="M340,48.2V0.8h33.2v5.6h-27.1v14.5h25.4v5.6h-25.4v16.1h28.2v5.6L340,48.2z"/>
	<path d="M383.9,48.2V0.8h15.9c2.7-0.1,5.5,0.2,8.2,0.7c2.5,0.6,4.8,1.7,6.8,3.4c2.5,2.2,4.3,5,5.4,8.1c1.3,3.6,1.9,7.4,1.8,11.2
		c0,3.2-0.4,6.4-1.2,9.6c-0.7,2.5-1.7,4.8-3.1,6.9c-2.2,3.4-5.7,5.8-9.7,6.7c-2.4,0.6-4.9,0.8-7.4,0.8L383.9,48.2z M390,42.6h9.8
		c2.4,0.1,4.8-0.2,7.1-0.9c1.5-0.5,2.9-1.3,4-2.4c1.6-1.7,2.8-3.8,3.4-6c0.9-3,1.3-6,1.2-9.1c0-4.9-0.8-8.8-2.4-11.4
		c-1.3-2.4-3.3-4.3-5.8-5.3c-1.6-0.7-4.3-1-7.9-1H390V42.6z"/>
	<path d="M430.4,25.1c0-7.9,2-14,6.1-18.4c4.1-4.4,9.9-6.9,15.9-6.7c4-0.1,8,1,11.5,3.1c3.4,2.1,6.1,5.1,7.8,8.7
		c1.8,4,2.7,8.3,2.6,12.7c0.1,4.4-0.9,8.8-2.8,12.8c-1.7,3.6-4.5,6.7-8,8.7c-3.4,2-7.2,3-11.2,3c-4.1,0-8.1-1.1-11.6-3.3
		c-3.4-2.1-6.1-5.2-7.8-8.8C431.3,33.2,430.4,29.2,430.4,25.1z M436.7,25.2c0,5.7,1.5,10.2,4.5,13.5c5.7,6.2,15.4,6.6,21.6,0.9
		c0,0,0.1-0.1,0.1-0.1c0.3-0.3,0.6-0.5,0.8-0.8c3-3.3,4.4-8,4.4-14.1c0.1-3.5-0.6-6.9-1.9-10.1c-2.3-5.5-7.7-9.1-13.8-9.1
		c-4.2-0.1-8.2,1.6-11.1,4.6C438.3,13,436.7,18.1,436.7,25.2L436.7,25.2z"/>
	<path d="M484.5,48.2V0.8h9.2l10.9,33.5c1,3.1,1.7,5.5,2.2,7c0.5-1.7,1.3-4.3,2.5-7.6l11-32.9h8.2v47.3h-5.9V8.6l-13.3,39.6h-5.5
		L490.4,7.9v40.3H484.5z"/>
	<rect x="0.1" y="59.4" width="529.4" height="18.5"/>
	<path class="st0" d="M14.5,74.2v-8.9h1.2v0.8c0.3-0.3,0.6-0.6,1-0.8c0.4-0.2,0.8-0.2,1.2-0.2c0.6,0,1.1,0.1,1.6,0.4
		c0.5,0.3,0.9,0.6,1.2,1.1c0.3,0.6,0.4,1.2,0.4,1.8c0,1-0.3,1.9-1,2.5c-0.6,0.6-1.5,0.9-2.3,0.9c-0.4,0-0.8-0.1-1.1-0.2
		c-0.3-0.1-0.6-0.3-0.9-0.6v3.1L14.5,74.2z M15.7,68.6c-0.1,0.7,0.2,1.3,0.6,1.8c0.8,0.8,2.1,0.8,2.9,0l0,0c0.8-1.1,0.8-2.6,0-3.7
		c-0.4-0.4-0.9-0.7-1.5-0.7c-0.5,0-1.1,0.2-1.4,0.6C15.9,67.2,15.6,67.9,15.7,68.6L15.7,68.6z"/>
	<path class="st0" d="M24,68.5c-0.1-1,0.3-1.9,1-2.5c0.7-0.6,1.6-0.9,2.6-0.8c0.9,0,1.8,0.3,2.6,0.8c0.7,0.6,1.1,1.5,1,2.4
		c0.1,1-0.3,1.9-1,2.6c-0.7,0.6-1.6,0.9-2.6,0.8c-0.9,0-1.8-0.3-2.6-0.8C24.3,70.4,23.9,69.5,24,68.5z M25.3,68.5
		c-0.1,0.7,0.2,1.4,0.7,1.9c0.4,0.4,1,0.6,1.6,0.6c0.6,0,1.1-0.2,1.6-0.6c0.9-1.1,0.9-2.6,0-3.7c-0.4-0.4-1-0.6-1.6-0.6
		c-0.6,0-1.1,0.2-1.6,0.6C25.5,67.2,25.2,67.9,25.3,68.5L25.3,68.5z"/>
	<path class="st0" d="M34.4,71.7v-8.9h1.3v8.9L34.4,71.7z"/>
	<path class="st0" d="M44.6,69.7l1.3,0.1c-0.2,0.6-0.6,1.2-1.2,1.5c-0.7,0.4-1.4,0.6-2.2,0.5c-0.9,0-1.9-0.3-2.6-0.8
		c-0.7-0.6-1.1-1.5-1-2.5c-0.1-1,0.3-1.9,1-2.5c0.7-0.6,1.6-0.9,2.6-0.9c0.9,0,1.8,0.3,2.5,0.9c0.7,0.6,1.1,1.5,1,2.5v0.3h-5.8
		c0,0.6,0.3,1.2,0.7,1.6c0.4,0.4,1,0.6,1.6,0.5C43.4,71,44.3,70.5,44.6,69.7z M40.3,67.9h4.3c0-0.5-0.2-0.9-0.5-1.2
		c-0.4-0.4-1-0.6-1.6-0.6c-0.5,0-1.1,0.2-1.5,0.5C40.6,66.9,40.4,67.4,40.3,67.9z"/>
	<path class="st0" d="M60.2,71.7v-0.8c-0.2,0.3-0.5,0.6-0.9,0.7c-0.4,0.2-0.8,0.3-1.2,0.3c-0.9,0-1.7-0.3-2.3-0.9
		c-0.7-0.6-1.1-1.5-1-2.5c0-0.6,0.1-1.3,0.4-1.9c0.3-0.5,0.7-0.9,1.2-1.2c0.5-0.2,1.1-0.4,1.6-0.4c0.4,0,0.8,0.1,1.2,0.2
		c0.3,0.1,0.7,0.4,0.9,0.6v-3.1h1.4v8.9L60.2,71.7z M56.1,68.5c-0.1,0.7,0.2,1.3,0.6,1.9c0.8,0.8,2.1,0.8,2.9,0
		c0.4-0.5,0.6-1.1,0.6-1.7c0.1-0.7-0.2-1.4-0.6-2c-0.4-0.4-1-0.6-1.5-0.6c-0.5,0-1,0.2-1.4,0.6C56.2,67.2,56,67.9,56.1,68.5
		L56.1,68.5z"/>
	<path class="st0" d="M70.1,71c-0.4,0.3-0.9,0.5-1.3,0.7c-0.5,0.2-1,0.2-1.5,0.2c-0.7,0-1.4-0.1-2-0.5c-0.7-0.5-0.9-1.5-0.4-2.2
		v-0.1c0.2-0.3,0.6-0.5,0.9-0.7c0.6-0.2,1.2-0.3,1.7-0.4c0.8-0.1,1.6-0.2,2.4-0.4v-0.3c0-0.3-0.1-0.7-0.3-0.9
		c-0.4-0.3-1-0.4-1.5-0.4c-0.5,0-0.9,0.1-1.4,0.3c-0.3,0.2-0.6,0.6-0.7,1l-1.3-0.1c0.1-0.6,0.5-1.2,1.1-1.5c0.7-0.4,1.6-0.5,2.4-0.5
		c0.6,0,1.3,0.1,1.9,0.3c0.4,0.1,0.7,0.4,0.9,0.8c0.1,0.5,0.2,0.9,0.2,1.4v1.5c0,0.6,0,1.3,0.1,1.9c0.1,0.3,0.2,0.5,0.3,0.8h-1.3
		C70.2,71.5,70.1,71.3,70.1,71z M70,68.5c-0.7,0.2-1.4,0.3-2.1,0.4c-0.4,0-0.8,0.1-1.1,0.2c-0.2,0.1-0.4,0.2-0.5,0.4
		C66.1,69.7,66,69.8,66,70c0,0.3,0.2,0.6,0.4,0.7c0.3,0.2,0.7,0.3,1.1,0.3c0.4,0,0.9-0.1,1.2-0.3c0.3-0.1,0.6-0.4,0.8-0.7
		c0.2-0.4,0.3-0.8,0.3-1.2L70,68.5z"/>
	<path class="st0" d="M74.9,71.7v-6.4h1.2v0.9c0.3-0.3,0.6-0.6,1-0.8c0.4-0.2,0.9-0.3,1.4-0.3c0.4,0,0.8,0.1,1.1,0.2
		c0.3,0.1,0.6,0.2,0.8,0.4c0.2,0.2,0.4,0.4,0.5,0.7c0.1,0.4,0.2,0.9,0.2,1.3v4h-1.3v-3.9c0-0.4,0-0.7-0.2-1
		c-0.1-0.2-0.3-0.4-0.5-0.5c-0.3-0.1-0.6-0.2-0.9-0.2c-0.5,0-1.1,0.1-1.5,0.5c-0.4,0.4-0.6,1-0.6,1.6v3.5L74.9,71.7z"/>
	<path class="st0" d="M89.7,69.4l1.3,0.1c-0.1,0.7-0.5,1.3-1.1,1.8c-0.6,0.4-1.3,0.6-2.1,0.6c-0.9,0-1.8-0.3-2.5-0.8
		c-0.7-0.7-1-1.6-1-2.5c-0.1-1,0.3-1.9,1-2.5c1.3-1,3.1-1.1,4.5-0.3c0.5,0.3,0.9,0.9,1,1.5l-1.3,0.2c-0.1-0.4-0.4-0.8-0.7-1
		c-0.3-0.2-0.7-0.3-1-0.3c-0.6,0-1.2,0.2-1.6,0.6c-0.5,0.5-0.7,1.2-0.6,1.9c-0.1,0.7,0.1,1.4,0.6,1.9c0.4,0.4,1,0.6,1.5,0.6
		c0.5,0,0.9-0.1,1.3-0.4C89.5,70.3,89.7,69.9,89.7,69.4z"/>
	<path class="st0" d="M99.2,69.7l1.3,0.1c-0.2,0.6-0.6,1.2-1.2,1.5c-0.7,0.4-1.4,0.6-2.2,0.5c-0.9,0-1.9-0.3-2.6-0.9
		c-0.7-0.6-1.1-1.5-1-2.5c-0.1-1,0.3-1.9,1-2.5c0.7-0.6,1.6-0.9,2.6-0.9c0.9,0,1.8,0.3,2.5,0.9c0.7,0.6,1.1,1.5,1,2.5v0.3h-5.7
		c0,0.6,0.3,1.2,0.7,1.6c0.4,0.4,1,0.6,1.6,0.5C98.1,71,98.9,70.5,99.2,69.7z M95,67.9h4.2c0-0.5-0.2-0.9-0.5-1.3
		c-0.4-0.4-1-0.6-1.5-0.6c-0.5,0-1.1,0.2-1.5,0.5C95.3,66.9,95,67.4,95,67.9L95,67.9z"/>
	<path class="st0" d="M139.8,69.8l1.3-0.2c0,0.4,0.3,0.8,0.6,1c0.8,0.4,1.8,0.4,2.6,0c0.3-0.1,0.5-0.4,0.5-0.7
		c0-0.3-0.2-0.5-0.4-0.6c-0.4-0.2-0.9-0.3-1.3-0.4c-0.7-0.1-1.4-0.3-2.1-0.5c-0.3-0.1-0.6-0.3-0.8-0.6c-0.2-0.2-0.3-0.5-0.3-0.8
		c0-0.5,0.3-1.1,0.8-1.3c0.6-0.4,1.4-0.6,2.1-0.5c0.5,0,1,0.1,1.5,0.2c0.4,0.1,0.8,0.3,1,0.6c0.3,0.3,0.4,0.7,0.5,1l-1.3,0.1
		c-0.1-0.7-0.7-1-1.7-1c-0.4,0-0.9,0.1-1.3,0.2c-0.2,0.1-0.4,0.3-0.4,0.6c0,0.2,0.2,0.5,0.4,0.6c0.5,0.2,0.9,0.3,1.4,0.4
		c0.7,0.1,1.4,0.3,2.1,0.6c0.3,0.1,0.5,0.3,0.7,0.6c0.2,0.2,0.3,0.6,0.3,0.9c0,0.6-0.3,1.2-0.8,1.5c-0.7,0.4-1.5,0.6-2.3,0.6
		C141.2,71.9,140.1,71.2,139.8,69.8z"/>
	<path class="st0" d="M152.2,70.8l0.2,1c-0.3,0.1-0.6,0.1-1,0.1c-0.4,0-0.7-0.1-1-0.2c-0.2-0.1-0.4-0.3-0.6-0.5
		c-0.1-0.4-0.2-0.8-0.2-1.3v-3.7h-0.9v-0.8h0.9v-1.6l1.3-0.6v2.2h1.3v0.8h-1.3v3.8c0,0.2,0,0.5,0.1,0.7c0.2,0.2,0.4,0.2,0.6,0.2
		C151.8,70.8,152,70.8,152.2,70.8z"/>
	<path class="st0" d="M155.2,71.7v-6.4h1.1v1c0.2-0.4,0.5-0.7,0.8-0.9c0.3-0.2,0.6-0.2,0.8-0.2c0.5,0,0.9,0.1,1.3,0.4l-0.4,1
		c-0.3-0.2-0.6-0.2-0.9-0.2c-0.3,0-0.5,0.1-0.8,0.2c-0.2,0.1-0.4,0.3-0.5,0.6c-0.2,0.4-0.3,0.9-0.3,1.3v3.4L155.2,71.7z"/>
	<path class="st0" d="M167,69.7l1.3,0.1c-0.2,0.6-0.6,1.2-1.2,1.5c-0.7,0.4-1.4,0.6-2.2,0.5c-0.9,0-1.9-0.3-2.6-0.8
		c-0.7-0.6-1.1-1.5-1-2.5c-0.1-1,0.3-1.9,1-2.5c0.7-0.6,1.6-0.9,2.6-0.9c0.9,0,1.8,0.3,2.5,0.9c0.7,0.6,1.1,1.5,1,2.5v0.3h-5.8
		c0,0.6,0.3,1.2,0.7,1.6c0.4,0.4,1,0.6,1.6,0.5C165.8,71.1,166.6,70.5,167,69.7z M162.7,67.9h4.3c0-0.5-0.2-0.9-0.5-1.2
		c-0.4-0.4-1-0.6-1.6-0.6c-0.5,0-1.1,0.2-1.5,0.5C163,66.9,162.7,67.4,162.7,67.9L162.7,67.9z"/>
	<path class="st0" d="M174.3,70.8l0.2,1c-0.3,0.1-0.6,0.1-1,0.1c-0.4,0-0.7-0.1-1-0.2c-0.3-0.1-0.5-0.3-0.6-0.5
		c-0.1-0.4-0.2-0.8-0.2-1.3v-3.7h-0.9v-0.8h0.9v-1.6l1.3-0.6v2.2h1.3v0.8H173v3.8c0,0.2,0,0.5,0.1,0.7c0.2,0.2,0.4,0.2,0.6,0.2
		L174.3,70.8z"/>
	<path class="st0" d="M182.1,69.4l1.3,0.1c-0.1,0.7-0.5,1.3-1.1,1.8c-0.6,0.4-1.3,0.6-2.1,0.6c-0.9,0-1.8-0.3-2.5-0.8
		c-0.7-0.7-1-1.6-1-2.5c-0.1-1,0.3-1.9,1-2.5c1.3-1,3.1-1.1,4.5-0.3c0.5,0.3,0.9,0.9,1,1.5l-1.3,0.2c-0.1-0.4-0.3-0.7-0.6-1
		c-0.3-0.2-0.7-0.3-1.1-0.3c-0.6,0-1.2,0.2-1.6,0.6c-0.5,0.5-0.7,1.2-0.6,1.9c-0.1,0.7,0.1,1.4,0.6,1.9c0.4,0.4,1,0.6,1.5,0.6
		c0.5,0,0.9-0.1,1.3-0.4C181.9,70.3,182.1,69.9,182.1,69.4z"/>
	<path class="st0" d="M186.3,71.7v-8.9h1.3V66c0.3-0.3,0.7-0.5,1-0.7c0.4-0.2,0.8-0.2,1.3-0.2c0.7,0,1.4,0.1,1.9,0.5
		c0.5,0.5,0.8,1.2,0.7,2v4.1h-1.3v-4.1c0-0.4-0.1-0.8-0.4-1.2c-0.3-0.3-0.8-0.4-1.2-0.4c-0.5,0-1,0.1-1.4,0.5
		c-0.4,0.4-0.7,1-0.6,1.7v3.5L186.3,71.7z"/>
	<path class="st0" d="M196.1,64.1v-1.2h1.3v1.2H196.1z M196.1,71.8v-6.4h1.3v6.4L196.1,71.8z"/>
	<path class="st0" d="M201,71.7v-6.4h1.2v0.9c0.3-0.3,0.6-0.6,1-0.8c0.4-0.2,0.9-0.3,1.4-0.3c0.4,0,0.8,0.1,1.1,0.2
		c0.3,0.1,0.6,0.2,0.8,0.4c0.2,0.2,0.4,0.4,0.5,0.7c0.1,0.4,0.2,0.9,0.2,1.3v4H206v-3.9c0-0.4,0-0.7-0.2-1c-0.1-0.2-0.3-0.4-0.5-0.5
		c-0.3-0.1-0.6-0.2-0.9-0.2c-0.5,0-1.1,0.1-1.5,0.5c-0.4,0.4-0.6,1-0.6,1.6v3.5L201,71.7z"/>
	<path class="st0" d="M210.7,72.3l1.3,0.2c0,0.3,0.2,0.6,0.5,0.8c0.4,0.2,0.8,0.3,1.2,0.3c0.5,0,0.9-0.1,1.3-0.3
		c0.3-0.2,0.6-0.5,0.7-0.8c0.1-0.5,0.1-0.9,0.1-1.4c-0.3,0.3-0.6,0.5-0.9,0.6c-0.4,0.1-0.8,0.2-1.2,0.2c-0.8,0-1.6-0.3-2.3-0.8
		c-0.7-0.6-1.1-1.5-1-2.5c0-0.6,0.1-1.3,0.4-1.8c0.3-0.5,0.7-0.9,1.2-1.2c0.5-0.2,1.1-0.4,1.7-0.4c0.4,0,0.8,0.1,1.2,0.2
		c0.4,0.1,0.8,0.4,1,0.7v-0.8h1.2v5.6c0,0.7-0.1,1.4-0.3,2.1c-0.3,0.5-0.7,0.8-1.2,1c-0.6,0.3-1.3,0.4-1.9,0.4
		c-0.8,0.1-1.6-0.1-2.3-0.5C211,73.5,210.7,72.9,210.7,72.3z M211.7,68.4c-0.1,0.7,0.2,1.3,0.6,1.9c0.4,0.4,0.9,0.6,1.5,0.6
		c0.6,0,1.1-0.2,1.5-0.6c0.8-1.1,0.8-2.6,0-3.6c-0.4-0.4-1-0.6-1.5-0.6c-0.5,0-1,0.2-1.4,0.6C211.9,67.1,211.7,67.8,211.7,68.4
		L211.7,68.4z"/>
	<path class="st0" d="M272.9,69.7l1.3,0.1c-0.2,0.6-0.6,1.2-1.2,1.5c-0.7,0.4-1.4,0.6-2.2,0.5c-0.9,0-1.9-0.3-2.6-0.8
		c-0.7-0.6-1.1-1.5-1-2.5c-0.1-1,0.3-1.9,1-2.5c0.7-0.6,1.6-0.9,2.6-0.9c0.9,0,1.8,0.3,2.5,0.9c0.7,0.6,1.1,1.5,1,2.5v0.3h-5.7
		c0,0.6,0.3,1.2,0.7,1.6c0.4,0.4,1,0.6,1.6,0.5C271.8,71,272.6,70.5,272.9,69.7z M268.6,67.9h4.3c0-0.5-0.2-0.9-0.5-1.2
		c-0.4-0.4-1-0.6-1.6-0.6c-0.5,0-1.1,0.1-1.5,0.5C268.9,66.9,268.6,67.4,268.6,67.9L268.6,67.9z"/>
	<path class="st0" d="M276.4,71.7l2.8-3.3l-2.6-3.1h1.6l1.2,1.5c0.2,0.3,0.4,0.5,0.5,0.7l0.6-0.7l1.3-1.5h1.5l-2.7,3l2.8,3.4h-1.6
		l-1.5-2l-0.4-0.5l-2.1,2.5L276.4,71.7z"/>
	<path class="st0" d="M285.5,68.5c-0.1-1,0.3-1.9,1-2.5c1.5-1.1,3.6-1.1,5.1,0c0.7,0.6,1.1,1.5,1,2.4c0.1,1-0.3,1.9-1,2.6
		c-1.5,1.1-3.6,1.1-5.1,0C285.9,70.4,285.5,69.5,285.5,68.5z M286.9,68.5c-0.1,0.7,0.2,1.4,0.7,1.9c0.4,0.4,1,0.6,1.6,0.6
		c0.6,0,1.1-0.2,1.6-0.6c0.9-1.1,0.9-2.6,0-3.7c-0.4-0.4-1-0.6-1.6-0.6c-0.6,0-1.1,0.2-1.6,0.6C287,67.2,286.8,67.9,286.9,68.5
		L286.9,68.5z"/>
	<path class="st0" d="M298.7,70.8l0.2,1c-0.3,0.1-0.6,0.1-1,0.1c-0.4,0-0.7-0.1-1-0.2c-0.2-0.1-0.4-0.3-0.6-0.5
		c-0.1-0.4-0.2-0.8-0.2-1.3v-3.7h-0.9v-0.8h0.9v-1.6l1.3-0.6v2.2h1.3v0.8h-1.3v3.8c0,0.2,0,0.5,0.1,0.7c0.2,0.2,0.4,0.2,0.6,0.2
		C298.3,70.8,298.5,70.8,298.7,70.8z"/>
	<path class="st0" d="M301.6,64.1v-1.2h1.3v1.2H301.6z M301.6,71.8v-6.4h1.3v6.4L301.6,71.8z"/>
	<path class="st0" d="M311.6,69.4l1.3,0.1c-0.1,0.7-0.5,1.3-1.1,1.8c-0.6,0.4-1.3,0.6-2.1,0.6c-0.9,0-1.8-0.3-2.5-0.8
		c-0.7-0.7-1-1.6-1-2.5c-0.1-1,0.3-1.9,1-2.5c1.3-1,3.1-1.1,4.5-0.3c0.5,0.3,0.9,0.9,1,1.5l-1.3,0.2c-0.1-0.4-0.3-0.7-0.6-1
		c-0.3-0.2-0.7-0.3-1.1-0.3c-0.6,0-1.2,0.2-1.6,0.6c-0.5,0.5-0.7,1.2-0.6,1.9c-0.1,0.7,0.1,1.4,0.6,1.9c0.4,0.4,1,0.6,1.5,0.6
		c0.5,0,0.9-0.1,1.3-0.4C311.4,70.3,311.6,69.9,311.6,69.4z"/>
	<path class="st0" d="M360.4,74.2v-8.9h1.2v0.8c0.3-0.3,0.6-0.6,1-0.8c0.4-0.2,0.8-0.2,1.2-0.2c0.6,0,1.1,0.1,1.6,0.4
		c0.5,0.3,0.9,0.6,1.2,1.1c0.3,0.6,0.5,1.2,0.4,1.8c0,1-0.3,1.9-1,2.5c-0.6,0.6-1.5,0.9-2.3,0.9c-0.4,0-0.8-0.1-1.1-0.2
		c-0.3-0.1-0.6-0.3-0.9-0.6v3.1L360.4,74.2z M361.7,68.6c-0.1,0.7,0.2,1.3,0.6,1.8c0.8,0.8,2.1,0.8,2.9,0l0,0c0.8-1.1,0.8-2.6,0-3.7
		c-0.4-0.4-0.9-0.7-1.5-0.7c-0.5,0-1.1,0.2-1.4,0.6C361.8,67.2,361.6,67.9,361.7,68.6L361.7,68.6z"/>
	<path class="st0" d="M369.9,68.5c-0.1-1,0.3-1.9,1-2.6c1.5-1.1,3.6-1.1,5.1,0c0.7,0.6,1.1,1.5,1,2.4c0.1,1-0.3,1.9-1,2.6
		c-1.5,1.1-3.6,1.1-5.1,0C370.2,70.4,369.8,69.5,369.9,68.5z M371.2,68.5c-0.1,0.7,0.2,1.4,0.7,1.9c0.4,0.4,1,0.6,1.6,0.6
		c0.6,0,1.1-0.2,1.6-0.6c0.9-1.1,0.9-2.6,0-3.7c-0.4-0.4-1-0.6-1.6-0.6c-0.6,0-1.1,0.2-1.6,0.6C371.4,67.2,371.2,67.9,371.2,68.5
		L371.2,68.5z"/>
	<path class="st0" d="M380.3,71.7v-8.9h1.3v8.9L380.3,71.7z"/>
	<path class="st0" d="M390.5,69.7l1.3,0.1c-0.2,0.6-0.6,1.2-1.2,1.5c-0.7,0.4-1.4,0.6-2.2,0.5c-0.9,0-1.9-0.3-2.6-0.8
		c-0.7-0.6-1.1-1.5-1-2.5c-0.1-1,0.3-1.9,1-2.5c0.7-0.6,1.6-0.9,2.6-0.9c0.9,0,1.8,0.3,2.5,0.9c0.7,0.6,1.1,1.5,1,2.5v0.3h-5.7
		c0,0.6,0.3,1.2,0.7,1.6c0.4,0.4,1,0.6,1.6,0.5C389.4,71,390.2,70.5,390.5,69.7z M386.2,67.9h4.3c0-0.5-0.2-0.9-0.5-1.2
		c-0.4-0.4-1-0.6-1.6-0.6c-0.5,0-1.1,0.2-1.5,0.5C386.5,66.9,386.3,67.4,386.2,67.9L386.2,67.9z"/>
	<path class="st0" d="M401.2,71.7v-8.9h1.3v5.1l3.1-2.6h1.7l-2.9,2.4l3.2,4h-1.6l-2.5-3.3l-0.9,0.7v2.6L401.2,71.7z"/>
	<path class="st0" d="M410.3,64.1v-1.2h1.3v1.2H410.3z M410.3,71.8v-6.4h1.3v6.4L410.3,71.8z"/>
	<path class="st0" d="M420.2,71.7v-0.8c-0.2,0.3-0.5,0.6-0.9,0.7c-0.4,0.2-0.8,0.3-1.2,0.3c-0.9,0-1.7-0.3-2.3-0.9
		c-0.7-0.6-1.1-1.5-1-2.5c0-0.6,0.1-1.3,0.4-1.9c0.3-0.5,0.7-0.9,1.2-1.2c0.5-0.3,1.1-0.4,1.6-0.4c0.4,0,0.8,0.1,1.2,0.2
		c0.3,0.1,0.7,0.4,0.9,0.6v-3.1h1.3v8.9L420.2,71.7z M416.1,68.5c-0.1,0.7,0.2,1.3,0.6,1.9c0.8,0.8,2.1,0.8,2.9,0
		c0.4-0.5,0.7-1.1,0.6-1.8c0.1-0.7-0.2-1.4-0.6-2c-0.4-0.4-1-0.6-1.5-0.6c-0.5,0-1,0.2-1.4,0.6C416.2,67.2,416,67.8,416.1,68.5
		L416.1,68.5z"/>
	<path class="st0" d="M424.6,69.8l1.3-0.2c0,0.4,0.3,0.8,0.6,1c0.8,0.4,1.8,0.4,2.6,0c0.3-0.1,0.5-0.4,0.5-0.7
		c0-0.3-0.2-0.5-0.4-0.6c-0.4-0.2-0.9-0.3-1.3-0.4c-0.7-0.1-1.4-0.3-2.1-0.5c-0.3-0.1-0.6-0.3-0.8-0.6c-0.2-0.2-0.3-0.5-0.3-0.9
		c0-0.5,0.3-1.1,0.8-1.3c0.6-0.4,1.4-0.5,2.1-0.5c0.5,0,1,0.1,1.5,0.2c0.4,0.1,0.8,0.3,1,0.6c0.3,0.3,0.4,0.7,0.5,1l-1.3,0.1
		c-0.1-0.7-0.7-1-1.7-1c-0.4,0-0.9,0.1-1.3,0.2c-0.2,0.1-0.4,0.3-0.4,0.6c0,0.2,0.2,0.5,0.4,0.6c0.5,0.2,0.9,0.3,1.4,0.4
		c0.7,0.1,1.4,0.3,2.1,0.6c0.3,0.1,0.5,0.3,0.7,0.6c0.2,0.3,0.3,0.6,0.3,0.9c0,0.6-0.3,1.2-0.8,1.5c-0.7,0.4-1.5,0.6-2.3,0.6
		C426,71.9,424.9,71.2,424.6,69.8z"/>
	<g>
		<path class="st1" d="M472.1,71.3c-0.5,0.3-0.9,0.6-1.3,0.7c-0.4,0.1-0.9,0.2-1.3,0.2c-0.8,0-1.4-0.2-1.8-0.5
			c-0.4-0.3-0.6-0.8-0.6-1.3c0-0.3,0.1-0.6,0.2-0.9s0.4-0.5,0.6-0.6s0.6-0.3,0.9-0.4c0.2-0.1,0.6-0.1,1.1-0.2c1-0.1,1.7-0.2,2.2-0.4
			c0-0.2,0-0.2,0-0.3c0-0.4-0.1-0.8-0.3-1c-0.3-0.2-0.8-0.4-1.4-0.4c-0.6,0-1,0.1-1.3,0.3c-0.3,0.2-0.5,0.5-0.6,1l-1.2-0.1
			c0.1-0.5,0.3-0.8,0.5-1.1c0.2-0.3,0.6-0.5,1.1-0.7c0.5-0.2,1-0.2,1.6-0.2c0.6,0,1.1,0.1,1.5,0.2c0.4,0.1,0.7,0.3,0.8,0.5
			s0.3,0.4,0.4,0.8c0,0.2,0.1,0.5,0.1,1v1.5c0,1,0,1.7,0.1,1.9c0.1,0.3,0.2,0.5,0.3,0.8h-1.3C472.3,71.9,472.2,71.7,472.1,71.3z
			 M472,68.9c-0.4,0.2-1.1,0.3-2,0.4c-0.5,0.1-0.9,0.1-1.1,0.2s-0.4,0.2-0.5,0.4s-0.2,0.3-0.2,0.5c0,0.3,0.1,0.5,0.4,0.7
			s0.6,0.3,1.1,0.3c0.5,0,0.9-0.1,1.2-0.3c0.4-0.2,0.6-0.4,0.8-0.8c0.1-0.2,0.2-0.6,0.2-1.1V68.9z"/>
		<path class="st1" d="M483.1,70.1l1.3,0.1c-0.2,0.7-0.6,1.2-1.1,1.6c-0.5,0.4-1.2,0.6-2.1,0.6c-1,0-1.9-0.3-2.5-0.9
			c-0.6-0.6-0.9-1.4-0.9-2.5c0-1.1,0.3-1.9,0.9-2.5s1.4-0.9,2.4-0.9c1,0,1.7,0.3,2.3,0.9s0.9,1.4,0.9,2.5c0,0.1,0,0.2,0,0.3H479
			c0,0.7,0.3,1.3,0.7,1.6s0.9,0.6,1.5,0.6c0.4,0,0.8-0.1,1.1-0.3C482.7,70.9,482.9,70.5,483.1,70.1z M479.1,68.3h4
			c-0.1-0.5-0.2-1-0.5-1.2c-0.4-0.4-0.9-0.6-1.5-0.6c-0.6,0-1,0.2-1.4,0.5C479.4,67.2,479.1,67.7,479.1,68.3z"/>
		<path class="st1" d="M488.6,72.1v-6.5h1.1v1c0.3-0.5,0.5-0.8,0.8-0.9c0.2-0.1,0.5-0.2,0.8-0.2c0.4,0,0.8,0.1,1.2,0.4l-0.4,1
			c-0.3-0.2-0.6-0.2-0.9-0.2c-0.3,0-0.5,0.1-0.7,0.2c-0.2,0.1-0.4,0.3-0.5,0.6c-0.1,0.4-0.2,0.8-0.2,1.3v3.4H488.6z"/>
		<path class="st1" d="M496,64.4v-1.3h1.2v1.3H496z M496,72.1v-6.5h1.2v6.5H496z"/>
		<path class="st1" d="M506.5,71.3c-0.5,0.3-0.9,0.6-1.3,0.7c-0.4,0.1-0.9,0.2-1.3,0.2c-0.8,0-1.4-0.2-1.8-0.5
			c-0.4-0.3-0.6-0.8-0.6-1.3c0-0.3,0.1-0.6,0.2-0.9s0.4-0.5,0.6-0.6s0.6-0.3,0.9-0.4c0.2-0.1,0.6-0.1,1.1-0.2c1-0.1,1.7-0.2,2.2-0.4
			c0-0.2,0-0.2,0-0.3c0-0.4-0.1-0.8-0.3-1c-0.3-0.2-0.8-0.4-1.4-0.4c-0.6,0-1,0.1-1.3,0.3c-0.3,0.2-0.5,0.5-0.6,1l-1.2-0.1
			c0.1-0.5,0.3-0.8,0.5-1.1c0.2-0.3,0.6-0.5,1.1-0.7c0.5-0.2,1-0.2,1.6-0.2c0.6,0,1.1,0.1,1.5,0.2c0.4,0.1,0.7,0.3,0.8,0.5
			s0.3,0.4,0.4,0.8c0,0.2,0.1,0.5,0.1,1v1.5c0,1,0,1.7,0.1,1.9c0.1,0.3,0.2,0.5,0.3,0.8h-1.3C506.6,71.9,506.6,71.7,506.5,71.3z
			 M506.4,68.9c-0.4,0.2-1.1,0.3-2,0.4c-0.5,0.1-0.9,0.1-1.1,0.2s-0.4,0.2-0.5,0.4s-0.2,0.3-0.2,0.5c0,0.3,0.1,0.5,0.4,0.7
			s0.6,0.3,1.1,0.3c0.5,0,0.9-0.1,1.2-0.3c0.4-0.2,0.6-0.4,0.8-0.8c0.1-0.2,0.2-0.6,0.2-1.1V68.9z"/>
		<path class="st1" d="M512.3,72.1v-9h1.2v9H512.3z"/>
	</g>
</g>
</svg>
