<svg id="Слой_1" data-name="Слой 1" xmlns="http://www.w3.org/2000/svg" viewBox="0 0 120 40"><defs><style>.cls-1{fill:none;stroke:#000;stroke-miterlimit:10;stroke-width:.2px}</style></defs><path d="M5.35 30.85a4 4 0 01-1.67.31 3 3 0 01-3.13-3.29 3.19 3.19 0 013.31-3.41 3.33 3.33 0 011.5.29l-.2.68a2.92 2.92 0 00-1.28-.27 2.39 2.39 0 00-2.47 2.68 2.34 2.34 0 002.43 2.61 3.2 3.2 0 001.34-.27zM14.61 27.75c0 2.24-1.33 3.42-2.94 3.42s-2.85-1.33-2.85-3.3 1.25-3.41 2.94-3.41 2.85 1.36 2.85 3.29zm-4.92.11c0 1.39.73 2.63 2 2.63s2-1.22 2-2.7c0-1.29-.66-2.64-2-2.64s-2 1.28-2 2.7zM18.38 30a2.85 2.85 0 001.47.42c.84 0 1.33-.45 1.33-1.11s-.34-1-1.19-1.29c-1-.38-1.67-.92-1.67-1.84a1.84 1.84 0 012-1.76 2.82 2.82 0 011.4.32l-.23.68a2.48 2.48 0 00-1.2-.31c-.86 0-1.19.53-1.19 1 0 .61.39.91 1.26 1.25 1.07.42 1.62 1 1.62 1.91s-.72 1.87-2.22 1.87a3.21 3.21 0 01-1.62-.41zM31.28 28.21c0-.91-.1-2-.09-2.8-.22.76-.48 1.57-.8 2.47L29.24 31h-.62l-1-3.09c-.3-.91-.55-1.75-.73-2.52 0 .81-.07 1.9-.12 2.87l-.17 2.78h-.78l.44-6.49h1l1.08 3.14c.26.8.48 1.51.64 2.19.16-.66.39-1.37.67-2.19l1.13-3.14h1l.39 6.49h-.8zM39.6 28h-2.46v2.34h2.75v.7h-3.57v-6.47h3.42v.7h-2.6v2.05h2.46zM45 25.28h-2v-.71h4.69v.71h-1.9v5.78H45zM52.07 24.57v6.49h-.82v-6.49zM60.74 30.85a4 4 0 01-1.67.31 3 3 0 01-3.13-3.29 3.19 3.19 0 013.31-3.41 3.33 3.33 0 011.5.29l-.2.68a2.92 2.92 0 00-1.28-.27 2.39 2.39 0 00-2.47 2.68 2.34 2.34 0 002.43 2.61 3.21 3.21 0 001.34-.27zM69.4 24.57h.82v3.13c.17-.25.34-.48.5-.69l1.94-2.44h1l-2.26 2.75 2.47 3.74h-1l-2.09-3.19-.6.71v2.48h-.78zM78.13 24.57v6.49h-.82v-6.49zM83.58 25.28h-1.93v-.71h4.69v.71h-1.93v5.78h-.83zM94.3 30.85a4 4 0 01-1.67.31 3 3 0 01-3.13-3.29 3.19 3.19 0 013.31-3.41 3.33 3.33 0 011.5.29l-.2.68a2.92 2.92 0 00-1.28-.27 2.39 2.39 0 00-2.47 2.68 2.34 2.34 0 002.43 2.61 3.21 3.21 0 001.34-.27zM99 24.57v2.72h3v-2.72h.83v6.49H102V28h-3v3h-.82v-6.43zM110.37 28h-2.47v2.34h2.74v.7h-3.56v-6.47h3.42v.7h-2.6v2.05h2.46zM114.53 31.06v-6.49h.89l2 3.29a18.5 18.5 0 011.17 2.14c-.07-.87-.09-1.66-.09-2.67v-2.76h.77v6.49h-.83l-2-3.3a20.8 20.8 0 01-1.18-2.17c0 .82.07 1.6.07 2.68v2.77zM4.38 16.22L2.8 20.29h-2L5.94 7.35h2.37l5.19 12.94h-2.1l-1.62-4.07zm5-1.31l-1.5-3.72c-.34-.84-.56-1.61-.79-2.36H7c-.23.77-.47 1.55-.77 2.34l-1.44 3.74zM27 7.35h2v11.54h6.5v1.4H27zM83.07 7.35v5.41h7.36V7.35h2v12.94h-2v-6.07h-7.36v6.06h-2V7.35zM109.57 16.22L108 20.29h-2l5.17-12.93h2.37l5.19 12.93h-2.1L115 16.22zm5-1.31l-1.49-3.72c-.34-.84-.56-1.61-.79-2.36-.23.77-.47 1.55-.77 2.34L110 14.91z"/><path class="cls-1" d="M57.31 12.83s-3-2.23-2.69-4.57 1.62-2 3.45-2.13 2.33.41 2.64.91a2.08 2.08 0 01.2 1.52"/><path class="cls-1" d="M59.42 11s1.09-3.35 3.93-3.09 3.25 4.06 3.25 4.46S66.09 14 65 14.1a13.35 13.35 0 00-2.18.3s2.54 1 2.69 1.67a2.64 2.64 0 01-1 3.09c-1.52 1.22-3 1.84-4.06 1.12a3.07 3.07 0 01-1.52-2.69c-.05-1.27.23 2.39-1.1 2.69a3.27 3.27 0 01-3.41-.66A7.77 7.77 0 0052.29 18c-.46-.15-.61-1.42 0-2.13S54 15 54.77 14.34c.62-.54-3.47 1.43-4.1-1.51a4 4 0 012.43-4.47 6 6 0 011.52-.1"/><path d="M56.7 13.88c-.06-.94.15-1.72 1-2a2.21 2.21 0 012.64.65c.68 1 .91 1.56 0 2.27a2.53 2.53 0 01-2.59.52c-.71-.32-.76-.42-.92-.94z"/><path class="cls-1" d="M58 12.21a2.45 2.45 0 01-.66-1.91 9.87 9.87 0 01.13-1.36M58.58 11.92a2.06 2.06 0 01-.1-1.35c.2-.78.35-1.24.35-1.24M59.18 12.21l.24-1.26M59.71 12.21a5.42 5.42 0 00.62-1.3M60.22 12.71a4.26 4.26 0 001.08-1c.31-.51.77-1.3.77-1.3M60.5 13.35a5.15 5.15 0 001.21 0 1.74 1.74 0 00.81-.52M60.5 14s1.89.35 2.42.4M60.33 14.38l1.54 1.37M59.87 14.62l1.56 2.42M59.42 14.95l.29 1.1M58.74 15.06l.14 2.35M58.26 15.06a3.24 3.24 0 01-.26 1.1c-.22.4-.55.88-.55.88M57.67 14.73c-.31.66-1.34 2.53-1.34 2.53M57.14 14.22l-1.72 1.39M57 13.99l-2.61.31M57 13.39h-3.14M57.33 13.11a7.7 7.7 0 01-1.78-.7l-.42-.33"/></svg>