<svg version="1.1" id="Слой_1" xmlns="http://www.w3.org/2000/svg" x="0" y="0" viewBox="0 0 119.8 23" xml:space="preserve"><style>.st0{fill:#333}.st1{fill:#fff}</style><path class="st0" d="M2.5 16.9h115v3.2H2.5zM3.7 12.3c.3.4.6.8 1 1 .4.2.9.3 1.4.3.3 0 .6 0 .9-.1.3-.1.5-.2.7-.4.2-.2.4-.4.5-.6s.2-.5.2-.8c0-.4-.1-.7-.2-.9s-.4-.4-.6-.6c-.3-.2-.6-.4-.9-.5-.3-.1-.6-.2-1-.3-.3-.1-.6-.2-1-.4-.3-.1-.6-.3-.8-.5-.3-.2-.5-.5-.6-.8-.2-.4-.3-.8-.3-1.3 0-.4.1-.8.3-1.2.2-.4.4-.7.7-.9.3-.2.7-.4 1.1-.5.4-.1.8-.2 1.3-.2.6 0 1.1.1 1.6.3.5.2.9.5 1.3 1l-.9.6c-.3-.4-.5-.6-.9-.8-.3-.2-.7-.2-1.1-.2-.3 0-.6 0-.9.1-.3.1-.6.2-.8.3-.2.2-.4.4-.5.7s-.2.5-.2.8c0 .5.1.9.4 1.2.3.3.6.5 1 .7.4.2.8.3 1.3.4.5.1.9.3 1.3.5s.7.5 1 .9.4.9.4 1.5c0 .5-.1.9-.3 1.2-.2.4-.4.7-.7.9-.3.2-.6.4-1 .6-.4.1-.8.2-1.2.2-.7 0-1.3-.1-1.9-.4s-1.1-.6-1.5-1.2l.9-.6zM10.9 9c0-.8.1-1.5.4-2.2s.6-1.2 1.1-1.7c.5-.5 1-.9 1.7-1.1s1.4-.4 2.2-.4c.8 0 1.5.1 2.2.4s1.2.7 1.7 1.1c.5.5.8 1.1 1.1 1.7s.4 1.4.4 2.2-.1 1.5-.4 2.2c-.3.7-.6 1.2-1.1 1.7-.5.5-1 .9-1.7 1.1s-1.4.4-2.2.4c-.8 0-1.5-.1-2.2-.4s-1.2-.6-1.7-1.1c-.5-.5-.8-1.1-1.1-1.7-.3-.6-.4-1.4-.4-2.2zm1 0c0 .6.1 1.2.3 1.8.2.6.5 1 .9 1.5.4.4.8.7 1.4 1s1.2.4 1.8.4c.7 0 1.3-.1 1.8-.4.5-.2 1-.6 1.4-1 .4-.4.7-.9.9-1.5.2-.6.3-1.2.3-1.8s-.1-1.2-.3-1.8c-.2-.6-.5-1-.9-1.5-.4-.4-.8-.7-1.4-1-.5-.2-1.2-.4-1.8-.4-.7 0-1.3.1-1.8.4s-1 .6-1.4 1c-.4.4-.7.9-.9 1.5-.2.6-.3 1.2-.3 1.8zM31.2 10.3c0 .6-.1 1.1-.2 1.6s-.3 1-.6 1.4c-.3.4-.7.7-1.2.9s-1.1.4-1.8.4-1.3-.1-1.8-.4c-.5-.2-.9-.5-1.2-.9-.3-.4-.5-.8-.6-1.4s-.2-1-.2-1.6V3.8h1V10c0 .4 0 .8.1 1.2.1.4.2.8.4 1.2.2.4.5.7.9.9s.9.4 1.5.4 1.1-.1 1.5-.4c.4-.2.7-.5.9-.9.2-.4.3-.8.4-1.2.1-.4.1-.8.1-1.2V3.8h1v6.5zM33.9 3.8h1v9.5h4.9v.9H34V3.8zM48.9 3.8h6.2v.9h-5.3v3.7h4.9v.9h-4.9v4.9h-1V3.8zM57.1 3.8H60.4c.2 0 .5 0 .8.1.3 0 .6.1.8.2.3.1.5.3.8.5.2.2.4.5.6.8.1.3.2.7.2 1.1 0 .5-.1.9-.3 1.2-.2.3-.4.6-.6.8-.3.2-.5.4-.9.4-.3.1-.6.2-.9.2l3 5h-1.1l-2.9-4.9h-1.8v4.9h-1V3.8zm1 4.6h2.1c.5 0 .9-.1 1.2-.2.3-.1.6-.3.7-.5s.3-.4.4-.6c.1-.2.1-.4.1-.6 0-.2 0-.4-.1-.6-.1-.2-.2-.4-.4-.6-.2-.2-.4-.3-.7-.5s-.7-.2-1.2-.2h-2.1v3.8zM65.8 3.8h6.4v.9h-5.4v3.7h5.1v.9h-5.1v4.1h5.6v.9h-6.6V3.8zM74.5 3.8h6.4v.9h-5.4v3.7h5.1v.9h-5.1v4.1h5.6v.9h-6.6V3.8zM83.1 3.8h3.2c.9 0 1.7.1 2.3.3.6.2 1.1.5 1.6.8.4.3.7.7 1 1.1.2.4.4.8.5 1.2.1.4.2.7.2 1v1.4c0 .3-.1.7-.2 1s-.3.8-.5 1.2c-.2.4-.6.8-1 1.1-.4.3-.9.6-1.6.8-.6.2-1.4.3-2.3.3h-3.2V3.8zm1 9.6h2c.7 0 1.3-.1 1.9-.3.6-.2 1.1-.4 1.6-.8.4-.4.8-.8 1-1.3s.4-1.2.4-2c0-.7-.1-1.4-.4-1.9s-.6-1-1-1.3c-.4-.4-1-.6-1.6-.8-.6-.2-1.2-.3-1.9-.3h-2v8.7zM93.5 9c0-.8.1-1.5.4-2.2s.6-1.2 1.1-1.7c.5-.5 1-.9 1.7-1.1.7-.3 1.4-.4 2.2-.4s1.5.1 2.2.4c.7.3 1.2.7 1.7 1.1.5.5.8 1.1 1.1 1.7s.4 1.4.4 2.2-.1 1.5-.4 2.2c-.3.7-.6 1.2-1.1 1.7s-1 .9-1.7 1.1c-.7.3-1.4.4-2.2.4s-1.5-.1-2.2-.4c-.7-.2-1.3-.5-1.7-1-.5-.5-.8-1.1-1.1-1.7-.3-.7-.4-1.5-.4-2.3zm.9 0c0 .6.1 1.2.3 1.8s.5 1 .9 1.5c.4.4.8.7 1.4 1s1.2.4 1.8.4c.7 0 1.3-.1 1.8-.4s1-.6 1.4-1c.4-.4.7-.9.9-1.5s.3-1.2.3-1.8-.1-1.2-.3-1.8c-.2-.6-.5-1-.9-1.5-.4-.4-.8-.7-1.4-1s-1.2-.4-1.8-.4c-.7 0-1.3.1-1.8.4s-1 .6-1.4 1c-.4.4-.7.9-.9 1.5-.2.6-.3 1.2-.3 1.8zM106.3 3.8h1.5l3.8 8.7 3.8-8.7h1.4v10.4h-1V5.1l-4 9.2h-.4l-4-9.2v9.2h-1V3.8z"/><g><path class="st1" d="M4.3 17.8h.3v.2c.1-.1.2-.1.3-.2.1 0 .2-.1.3-.1.1 0 .2 0 .4.1.1 0 .2.1.3.2 0 0 .1.1.1.2s.1.2.1.3 0 .2-.1.3c0 .1-.1.2-.2.2s-.2.1-.3.2-.2.1-.3.1c-.1 0-.3 0-.4-.1s-.1-.2-.2-.3v.9h-.3v-2zm.3.7v.2c0 .1.1.1.1.2.1 0 .1.1.2.1h.4c.1 0 .1-.1.2-.1s.1-.1.1-.2v-.2-.2c0-.1-.1-.1-.1-.2s0-.1-.1-.1h-.2-.3c-.1 0-.1.1-.2.1s-.1.1-.1.2v.2zM6.5 18.5c0-.1 0-.2.1-.3 0-.1.1-.2.2-.2.1-.1.2-.1.3-.2.1 0 .2-.1.4-.1s.2 0 .4.1c.1 0 .2.1.3.2l.2.2c0 .1.1.2.1.3s0 .2-.1.3c0 .1-.1.2-.2.2-.1.1-.2.1-.3.2-.1 0-.2.1-.4.1s-.2 0-.4-.1c-.1 0-.2-.1-.3-.2l-.2-.2c-.1-.1-.1-.2-.1-.3zm.3 0v.2c0 .1.1.1.1.2.1 0 .1.1.2.1h.4c.1 0 .1-.1.2-.1s.1-.1.1-.2v-.2-.2c0-.1-.1-.1-.1-.2s0-.1-.1-.1h-.2-.2c-.1 0-.2 0-.3.1s-.1.1-.1.2v.2zM8.8 16.9h.3v2.3h-.3v-2.3zM11.2 18.9c-.1.1-.2.2-.3.2-.1 0-.3.1-.4.1-.1 0-.2 0-.4-.1s-.2-.1-.3-.1l-.2-.2c0-.1-.1-.2-.1-.3 0-.1 0-.2.1-.3 0-.1.1-.2.2-.2.1-.1.2-.1.3-.2.1 0 .2-.1.3-.1h.3c.1 0 .2.1.3.1l.2.2c.1.1.1.2.1.3v.1H9.9c0 .1 0 .1.1.2l.1.1s.1.1.2.1h.2c.1 0 .2 0 .3-.1.1 0 .2-.1.2-.2l.2.4zm-.3-.6c0-.1-.1-.2-.1-.3-.1-.1-.2-.1-.4-.1s-.3 0-.4.1c-.1.1-.2.2-.2.3h1.1zM14.2 18.9c-.1.1-.1.1-.3.2-.1.1-.2.1-.4.1-.1 0-.2 0-.3-.1-.1 0-.2-.1-.3-.2l-.2-.2c0-.1-.1-.2-.1-.3s0-.2.1-.3c0-.1.1-.2.2-.2.1-.1.2-.1.3-.2s.2-.1.4-.1c.1 0 .2 0 .3.1.1 0 .2.1.3.2v-1.1h.3v2.3h-.3v-.2zm0-.4v-.2c0-.1-.1-.1-.1-.2s-.2-.1-.3-.1h-.2-.2c-.1 0-.1.1-.2.1s-.1.1-.1.2v.4c0 .1.1.1.1.2.1 0 .1.1.2.1h.4c.1 0 .1-.1.2-.1s.1-.1.1-.2c.1-.1.1-.2.1-.2zM15 17.9c.1-.1.2-.1.3-.2.1 0 .2-.1.4-.1s.4 0 .5.1.2.2.2.4V18.9h-.3v-.1-.1l-.2.2c-.1 0-.2.1-.3.1h-.2c-.1 0-.1 0-.2-.1-.1.2-.2.1-.2.1v-.2c0-.1 0-.2.1-.3s.2-.1.3-.1c.1 0 .2-.1.3-.1h.4c0-.1 0-.2-.1-.2-.1-.1-.2-.1-.3-.1h-.3c-.1 0-.2.1-.2.1l-.2-.2zm.8.6c-.2 0-.3 0-.4.1s-.2.1-.2.2 0 .1.1.2c.1 0 .2.1.3.1h.2c.1 0 .1-.1.2-.1l.1-.1V18.6h-.3zM17 18.1v-.2-.2h.3v.2s0-.1.1-.1l.1-.1s.1 0 .2-.1h.5c.1 0 .1.1.2.1s.1.1.1.2V19h-.3v-.8c0-.1 0-.2-.1-.3-.1-.1-.2-.1-.3-.1h-.2c-.1 0-.1.1-.2.1s-.1.1-.1.2V19H17v-.9zM20.2 18.1s-.1-.1-.2-.1h-.4c-.1 0-.1.1-.2.1 0 0-.1.1-.1.2v.4c0 .1.1.1.1.2 0 0 .1.1.2.1h.2c.2 0 .3-.1.4-.2l.2.2c-.1.1-.2.1-.3.2-.1 0-.2.1-.3.1-.1 0-.2 0-.4-.1-.1 0-.2-.1-.3-.2l-.2-.2c0-.1-.1-.2-.1-.3 0-.1 0-.2.1-.3 0-.1.1-.2.2-.2.1-.1.2-.1.3-.2.1 0 .2-.1.4-.1.1 0 .2 0 .4.1.1 0 .2.1.3.2l-.3.1zM22.3 18.9c-.1.1-.2.2-.3.2-.1 0-.3.1-.4.1-.1 0-.2 0-.4-.1L21 19l-.2-.2c0-.1-.1-.2-.1-.3 0-.1 0-.2.1-.3 0-.1.1-.2.2-.2.1-.1.2-.1.3-.2.1 0 .2-.1.3-.1h.3c.1 0 .2.1.3.1l.2.2c.1.1.1.2.1.3v.1H21c0 .1 0 .1.1.2l.1.1s.1.1.2.1h.2c.1 0 .2 0 .3-.1.1 0 .2-.1.2-.2l.2.4zm-.2-.6c0-.1-.1-.2-.1-.3-.1-.1-.2-.1-.4-.1s-.3 0-.4.1c-.1.1-.2.2-.2.3h1.1zM33.5 18.8c.1.1.1.1.2.1s.1.1.2.1h.2s.1 0 .1-.1v-.1-.1l-.1-.1H34 33.7c-.1 0-.1 0-.2-.1-.1 0-.1-.1-.1-.1v-.2c0-.1 0-.1.1-.2l.1-.1c.1 0 .1-.1.2-.1h.2c.1 0 .2 0 .3.1.1 0 .2.1.2.2l-.2.1-.1-.1H34h-.1-.1s-.1 0-.1.1v.2s.1 0 .1.1h.5c.1 0 .1 0 .2.1.1 0 .1.1.1.1v.2c0 .1 0 .1-.1.2s-.1.1-.2.1-.1.1-.2.1h-.2c-.1 0-.3 0-.4-.1-.1 0-.2-.1-.3-.2l.3-.2zM36 18h-.5V18.9s0 .1.1.1H35.9v.2H35.3c-.1 0-.1-.1-.1-.1l-.1-.1v-1h-.4v-.2h.4v-.4h.3v.4h.6v.2zM36.4 18.1v-.2-.2h.3v.2s0-.1.1-.1l.1-.1s.1 0 .2-.1h.4v.2h-.1c-.2 0-.3 0-.4.1-.1.1-.1.2-.1.4v.7h-.3v-.9zM37.7 17.9c.1-.1.2-.1.3-.2.1 0 .2-.1.4-.1s.4 0 .5.1.2.2.2.4V18.9h-.3v-.1-.1l-.2.2c-.1 0-.2.1-.3.1h-.2c-.1 0-.1 0-.2-.1-.1 0-.1-.1-.1-.1v-.2c0-.1 0-.2.1-.3s.2-.1.3-.1c.1 0 .2-.1.3-.1h.4c0-.1 0-.2-.1-.2-.1-.1-.2-.1-.3-.1h-.3l-.3.3-.2-.2zm.8.6c-.2 0-.3 0-.4.1s-.2.1-.2.2 0 .1.1.2c.1 0 .2.1.3.1h.2c.1 0 .1-.1.2-.1l.1-.1V18.6h-.3zM40.6 18h-.5V18.9s0 .1.1.1H40.5v.2H39.9c-.1 0-.1-.1-.1-.1l-.1-.1v-1h-.4v-.2h.4v-.4h.3v.4h.5v.2zM42.2 18.1c-.1 0-.2-.1-.2-.1h-.4c-.1 0-.1.1-.2.1 0 0-.1.1-.1.2v.4c0 .1.1.1.1.2 0 0 .1.1.2.1h.2c.2 0 .3-.1.4-.2l.2.2c-.1.1-.2.1-.3.2-.1 0-.2.1-.3.1-.1 0-.2 0-.4-.1-.1 0-.2-.1-.3-.2l-.2-.2c0-.1-.1-.2-.1-.3 0-.1 0-.2.1-.3 0-.1.1-.2.2-.2.1-.1.2-.1.3-.2.1 0 .2-.1.4-.1.1 0 .2 0 .4.1.1 0 .2.1.3.2l-.3.1zM42.8 16.9h.3V18s0-.1.1-.1l.1-.1s.1 0 .2-.1h.5c.1 0 .1.1.2.1s.1.1.1.2v1.1H44v-.8c0-.1 0-.2-.1-.3-.1-.1-.2-.1-.3-.1h-.2c-.1 0-.1.1-.2.1s-.1.1-.1.2V19.1h-.3v-2.2zM44.8 17.2s0-.1.1-.1l.1-.1s.1 0 .1.1l.1.1s0 .1-.1.1h-.2c-.1 0-.1 0-.1-.1zm0 .6h.3v1.4h-.3v-1.4zM45.8 18.1v-.2-.2h.2v.2s0-.1.1-.1l.1-.1s.1 0 .2-.1h.5c.1 0 .1.1.2.1s.1.1.1.2V19h-.3v-.8c0-.1 0-.2-.1-.3-.1-.1-.2-.1-.3-.1h-.2c-.1 0-.1.1-.2.1s-.1.1-.1.2V19h-.3v-.9zM49.5 19.1c0 .3-.1.4-.2.6-.2.1-.4.2-.7.2-.2 0-.3 0-.4-.1s-.3-.1-.4-.2l.2-.2c.1.1.2.1.3.2.1 0 .2.1.3.1h.3c.1 0 .1-.1.2-.1 0-.1.1-.1.1-.2V19c-.1.1-.2.2-.3.2s-.2.1-.3.1c-.1 0-.3 0-.4-.1L48 19l-.2-.2c0-.1-.1-.2-.1-.3 0-.1 0-.2.1-.3 0-.1.1-.2.2-.2.1-.1.2-.1.3-.1H48.9c.1 0 .1 0 .2.1.1 0 .1.1.1.1l.1.1V18h.3v1.1zm-1.5-.6v.2c0 .1.1.1.1.2.1 0 .1.1.2.1h.5c.1 0 .1-.1.2-.1s.1-.1.1-.2v-.2-.2c0-.1-.1-.1-.1-.2s-.1-.1-.2-.1h-.2-.2c-.1 0-.1.1-.2.1s-.1.1-.1.2c-.1 0-.1.1-.1.2zM62.2 18.9c-.1.1-.2.2-.3.2-.1 0-.3.1-.4.1-.1 0-.2 0-.4-.1s-.2-.1-.3-.1l-.2-.2c0-.1-.1-.2-.1-.3 0-.1 0-.2.1-.3s.1-.2.2-.2.2-.1.3-.2c.1 0 .2-.1.3-.1h.3c.1 0 .2.1.3.1l.2.2c.1.1.1.2.1.3v.1H61c0 .1 0 .1.1.2l.1.1s.1.1.2.1h.2c.1 0 .2 0 .3-.1.1 0 .2-.1.2-.2l.1.4zm-.3-.6c0-.1-.1-.2-.1-.3-.1-.1-.2-.1-.4-.1s-.3 0-.4.1c-.1.1-.2.2-.2.3h1.1zM63.2 18.4l-.6-.6h.4l.4.5.4-.5h.3l-.6.6.7.8h-.4l-.5-.6-.5.6h-.3l.7-.8zM64.5 18.5c0-.1 0-.2.1-.3 0-.1.1-.2.2-.2.1-.1.2-.1.3-.2.1 0 .2-.1.4-.1s.2 0 .4.1c.1 0 .2.1.3.2l.2.2c0 .1.1.2.1.3s0 .2-.1.3c0 .1-.1.2-.2.2-.1.1-.2.1-.3.2-.1 0-.2.1-.4.1s-.2 0-.4-.1c-.1 0-.2-.1-.3-.2l-.2-.2c-.1-.1-.1-.2-.1-.3zm.3 0v.2c0 .1.1.1.1.2.1 0 .1.1.2.1h.4c.1 0 .1-.1.2-.1s.1-.1.1-.2v-.2-.2c0-.1-.1-.1-.1-.2-.1 0-.1-.1-.2-.1h-.4c-.1 0-.1.1-.2.1s-.1.1-.1.2v.2zM67.7 18h-.5V18.9s0 .1.1.1H67.6v.2H67v-.1l-.1-.1v-1h-.4v-.2h.4v-.4h.3v.4h.5v.2zM68.1 17.2s0-.1.1-.1.1-.1.1-.1.1 0 .1.1.1.1.1.1 0 .1-.1.1h-.1-.1c-.1 0-.1 0-.1-.1zm0 .6h.3v1.4h-.3v-1.4zM70.2 18.1s-.1-.1-.2-.1h-.4c-.1 0-.1.1-.2.1 0 0-.1.1-.1.2v.4c0 .1.1.1.1.2s.1.1.2.1h.2c.2 0 .3-.1.4-.2l.2.2c-.1.1-.2.1-.3.2-.1 0-.2.1-.3.1-.1 0-.2 0-.4-.1-.1 0-.2-.1-.3-.2l-.2-.2c0-.1-.1-.2-.1-.3 0-.1 0-.2.1-.3 0-.1.1-.2.2-.2.1-.1.2-.1.3-.2s.2-.1.4-.1c.1 0 .2 0 .4.1.1 0 .2.1.3.2l-.3.1zM81.4 17.8h.3v.2c.1-.1.2-.1.3-.2.1 0 .2-.1.3-.1.1 0 .2 0 .4.1.1 0 .2.1.3.2l.2.2c0 .1.1.2.1.3s0 .2-.1.3c0 .1-.1.2-.2.2s-.2.1-.3.2-.2.1-.3.1c-.1 0-.3 0-.4-.1s-.2-.1-.2-.2v.9h-.3v-2.1zm.3.7v.2c0 .1.1.1.1.2.1 0 .1.1.2.1h.4c.1 0 .1-.1.2-.1s.1-.1.1-.2v-.2-.2c0-.1-.1-.1-.1-.2-.1 0-.1-.1-.2-.1H82c-.1 0-.1.1-.2.1s-.1.1-.1.2v.2zM83.6 18.5c0-.1 0-.2.1-.3 0-.1.1-.2.2-.2.1-.1.2-.1.3-.2.1 0 .2-.1.4-.1s.2 0 .4.1c.1 0 .2.1.3.2l.2.2c0 .1.1.2.1.3s0 .2-.1.3c0 .1-.1.2-.2.2-.1.1-.2.1-.3.2-.1 0-.2.1-.4.1s-.2 0-.4-.1c-.1 0-.2-.1-.3-.2l-.2-.2c-.1-.1-.1-.2-.1-.3zm.3 0v.2c0 .1.1.1.1.2.1 0 .1.1.2.1h.4c.1 0 .1-.1.2-.1s.1-.1.1-.2v-.2-.2c0-.1-.1-.1-.1-.2-.1 0-.1-.1-.2-.1h-.4c-.1 0-.1.1-.2.1s-.1.1-.1.2v.2zM85.9 16.9h.3v2.3h-.3v-2.3zM88.3 18.9c-.1.1-.2.2-.3.2-.1 0-.3.1-.4.1-.1 0-.2 0-.4-.1s-.2-.1-.3-.1l-.2-.2c0-.1-.1-.2-.1-.3 0-.1 0-.2.1-.3s.1-.2.2-.2.2-.1.3-.2c.1 0 .2-.1.3-.1h.3c.1 0 .2.1.3.1l.2.2c.1.1.1.2.1.3v.1H87c0 .1 0 .1.1.2l.1.1s.1.1.2.1h.2c.1 0 .2 0 .3-.1.1 0 .2-.1.2-.2l.2.4zm-.3-.6c0-.1-.1-.2-.1-.3-.1-.1-.2-.1-.4-.1s-.3 0-.4.1c-.1.1-.2.2-.2.3H88zM89.9 16.9h.3v1.5l.8-.6h.4l-.8.6.9.8H91l-.8-.7v.7h-.3v-2.3zM91.7 17.2s0-.1.1-.1.1-.1.1-.1.1 0 .1.1.1.1.1.1 0 .1-.1.1h-.1-.1c-.1 0-.1 0-.1-.1zm.1.6h.3v1.4h-.3v-1.4zM94.1 18.9c-.1.1-.1.1-.3.2-.1.1-.2.1-.4.1-.1 0-.2 0-.3-.1-.1 0-.2-.1-.3-.2l-.2-.2c0-.1-.1-.2-.1-.3s0-.2.1-.3c0-.1.1-.2.2-.2.1-.1.2-.1.3-.2.1 0 .2-.1.4-.1.1 0 .2 0 .3.1.1 0 .2.1.3.2v-1.1h.3v2.3h-.3v-.2zm0-.4v-.2c0-.1-.1-.1-.1-.2-.1 0-.1-.1-.2-.1h-.4c-.1 0-.1.1-.2.1s-.1.1-.1.2v.4c0 .1.1.1.1.2.1 0 .1.1.2.1h.4c.1 0 .1-.1.2-.1s.1-.1.1-.2v-.2zM95 18.8c.1.1.1.1.2.1s.1.1.2.1h.2s.1 0 .1-.1v-.1-.1l-.1-.1h-.1H95.2c-.1 0-.1 0-.2-.1l-.1-.1v-.2c0-.1 0-.1.1-.2 0-.1.1-.1.1-.1.1 0 .1-.1.2-.1h.2c.1 0 .2 0 .3.1.1 0 .2.1.2.2l-.2.1-.1-.1h-.2-.1-.1s-.1 0-.1.1v.2s.1 0 .1.1h.5c.1 0 .1 0 .2.1l.1.1v.2c0 .1 0 .1-.1.2 0 .1-.1.1-.2.1s-.1.1-.2.1h-.2c-.1 0-.3 0-.4-.1s-.2-.1-.3-.2l.3-.2zM107.1 17.9c.1-.1.2-.1.3-.2.1 0 .2-.1.4-.1s.4 0 .5.1.2.2.2.4V18.9h-.3v-.1-.1l-.2.2c-.1 0-.2.1-.3.1h-.2c-.1 0-.1 0-.2-.1-.1 0-.1-.1-.1-.1v-.2c0-.1 0-.2.1-.3s.2-.1.3-.1c.1 0 .2-.1.3-.1h.4c0-.1 0-.2-.1-.2s-.2-.1-.3-.1h-.3c-.1 0-.2.1-.2.1h-.3zm.8.6c-.2 0-.3 0-.4.1s-.2.1-.2.2 0 .1.1.2c.1 0 .2.1.3.1h.2c.1 0 .1-.1.2-.1l.1-.1V18.6h-.3zM110.6 18.9c-.1.1-.2.2-.3.2-.1 0-.3.1-.4.1-.1 0-.2 0-.4-.1s-.2-.1-.3-.2l-.2-.2c0-.1-.1-.2-.1-.3 0-.1 0-.2.1-.3s.1-.2.2-.2.2-.1.3-.2c.1 0 .2-.1.3-.1h.3c.1 0 .2.1.3.1l.2.2c.1.1.1.2.1.3v.1h-1.3c0 .1 0 .1.1.2l.1.1s.1.1.2.1h.2c.1 0 .2 0 .3-.1.1 0 .2-.1.2-.2l.1.5zm-.3-.6c0-.1-.1-.2-.1-.3-.1-.1-.2-.1-.4-.1s-.3 0-.4.1c-.1.1-.2.2-.2.3h1.1zM111.1 18.1v-.2-.2h.3v.2s0-.1.1-.1l.1-.1s.1 0 .2-.1h.4v.2h-.1c-.2 0-.3 0-.4.1s-.1.2-.1.4v.7h-.3v-.9zM112.4 17.2s0-.1.1-.1.1-.1.1-.1.1 0 .1.1.1.1.1.1 0 .1-.1.1h-.1-.1c-.1 0-.1 0-.1-.1zm.1.6h.3v1.4h-.3v-1.4zM113.4 17.9c.1-.1.2-.1.3-.2.1 0 .2-.1.4-.1s.4 0 .5.1.2.2.2.4V18.9h-.3v-.1-.1l-.2.2c-.1 0-.2.1-.3.1h-.2c-.1 0-.1 0-.2-.1-.1 0-.1-.1-.1-.1v-.2c0-.1 0-.2.1-.3s.2-.1.3-.1c.1 0 .2-.1.3-.1h.4c0-.1 0-.2-.1-.2s-.2-.1-.3-.1h-.3c-.1 0-.2.1-.2.1h-.3zm.8.6c-.2 0-.3 0-.4.1s-.2.1-.2.2 0 .1.1.2c.1 0 .2.1.3.1h.2c.1 0 .1-.1.2-.1l.1-.1V18.6h-.3zM115.3 16.9h.3v2.3h-.3v-2.3z"/></g></svg>